<svg xmlns="http://www.w3.org/2000/svg" width="500" height="500" viewBox="0 0 500 500"><circle cx="250" cy="250" r="248" fill="white"/><clipPath id="a"><path d="M0 0h500v500H0z"/></clipPath><g fill="#1c1d18" clip-path="url(#a)"><path d="M244.892.234c6.32-.031 15.226-.195 21.363.246 32.882 2.362 70.68 12.375 99.597 28.67-18.868 20.437-41.013 41.688-60.787 61.503l-88.028 88.638c-16.376 16.498-32.756 32.509-48.92 49.313-13.454-3.737-21.447-5.676-35.551-.817a48.53 48.53 0 0 0-27.797 24.839c-6.838 14.2-6.402 26.299-1.336 40.755-7.288 7.84-16.062 16.192-23.743 23.79L46.38 350.806c-5.263 5.296-10.98 11.275-16.441 16.286-.98-1.502-1.834-3.284-2.62-4.865C5.43 318.258-4.272 266.137 3.131 217.423c1.155-7.601 1.968-15.133 3.651-22.73A247.1 247.1 0 0 1 69.306 78.229c40.85-41.859 91.16-68.822 149.432-75.93C229 1.047 234.308.345 244.892.234"/><path d="M470.312 133.44c.928.35.772.47 1.242 1.418 9.843 19.786 17.877 41.698 22.492 63.349a249.44 249.44 0 0 1-5.982 126.11 251.43 251.43 0 0 1-127.18 148.8 246.68 246.68 0 0 1-147.703 23.91c-13.845-2.152-29.778-6.409-43.103-10.753-13.521-4.935-23.64-10-36.485-15.562 2.808-3.972 14.575-15.343 18.334-19.045a2058 2058 0 0 0 26.74-26.818L283.72 319.942a2383 2383 0 0 0 31.635-31.635c5.6-5.6 11.398-11.004 16.78-16.8 10.29 3.663 20.73 5.169 31.466 2.116a51.08 51.08 0 0 0 30.778-24.734c8.13-14.788 6.909-27.267 2.507-42.571 5.625-4.66 12.15-11.842 17.49-17.172l38.426-38.368c5.558-5.521 11.67-12.258 17.511-17.337"/><path d="M399.26 50.378q.814.496 1.581 1.063c3.259 2.384 10.906 8.969 13.626 11.421 4.926 4.444 33.356 32.312 34.108 37.545-1.917 2.652-7.32 7.745-9.782 10.169l-13.76 13.733-55.266 55.414c-11.925-3.374-18.107-5.079-30.5-1.933-13.093 3.324-23.649 11.116-30.53 22.799-5.036 8.548-8.149 19.571-6.869 29.54.607 4.728 2.055 9.599 3.232 14.242-5.744 6.351-14.797 14.9-21.064 21.173l-41.583 41.75-141.178 142.034c-1.523-.365-5.81-3.928-7.281-5.115a252.7 252.7 0 0 1-42.816-44.319c2.24-2.974 7.644-8.177 10.335-10.85l14.363-14.39a5823 5823 0 0 0 54.307-54.47c2.465.885 4.817 1.692 7.336 2.364 27.924 7.457 58.484-14.156 60.698-43.03.661-8.644-.416-15.786-3.194-23.934 4.889-5.951 13.588-14.08 19.276-19.784l36.886-37.019 79.325-79.837c22.958-22.783 46.301-45.313 68.75-68.566"/></g></svg>